<?xml version="1.0" encoding="UTF-8" standalone="no"?>
<!DOCTYPE svg PUBLIC "-//W3C//DTD SVG 1.1//EN" "http://www.w3.org/Graphics/SVG/1.1/DTD/svg11.dtd">
<svg width="100%" height="100%" viewBox="0 0 800 800" version="1.1" xmlns="http://www.w3.org/2000/svg" xmlns:xlink="http://www.w3.org/1999/xlink" xml:space="preserve" xmlns:serif="http://www.serif.com/" style="fill-rule:evenodd;clip-rule:evenodd;stroke-linejoin:round;stroke-miterlimit:2;">
    <g>
        <path d="M682.637,117.358C839.114,273.836 839.114,527.513 682.637,683.989C561.097,805.53 382.236,829.658 233.192,765.342C187.478,745.598 165.844,737.725 133.972,748.306L36.936,781.059C31.816,782.788 26.175,781.467 22.344,777.652C18.528,773.836 17.225,768.18 18.953,763.059L51.706,666.041C62.27,634.167 54.397,612.517 34.669,566.803C-29.664,417.775 -5.519,238.898 116.022,117.358C272.483,-39.119 526.175,-39.119 682.637,117.358ZM612.314,470.349C614.002,456.842 603.45,445.024 589.943,445.024L210.057,445.024C196.55,445.024 185.998,456.983 187.686,470.349C200.208,570.245 285.471,647.629 388.744,647.629L411.256,647.629C514.529,647.629 599.792,570.245 612.314,470.349ZM208.65,331.621C207.665,343.58 223.845,348.364 229.895,337.952L243.262,314.033C254.096,294.757 270.276,283.642 287.582,283.642C304.888,283.642 321.068,294.757 331.902,314.033L345.268,337.952C351.037,348.364 367.217,343.721 366.232,331.621C361.589,272.386 320.927,231.162 287.441,231.162C253.955,231.162 213.293,272.386 208.65,331.621ZM433.768,331.621C432.783,343.721 449.104,348.364 455.013,337.952L468.379,314.033C479.213,294.757 495.394,283.642 512.7,283.642C530.005,283.642 546.186,294.757 557.02,314.033L570.386,337.952C576.155,348.364 592.335,343.721 591.35,331.621C586.707,272.386 546.045,231.162 512.559,231.162C479.073,231.162 438.411,272.386 433.768,331.621Z"/>
    </g>
</svg>
